<?plantuml 1.2026.2beta3?>
<svg xmlns="http://www.w3.org/2000/svg" xmlns:xlink="http://www.w3.org/1999/xlink" contentStyleType="text/css" data-diagram-type="DESCRIPTION" height="652px" preserveAspectRatio="none" style="width:1256px;height:652px;background:#FFFFFF;" version="1.1" viewBox="0 0 1256 652" width="1256px" zoomAndPan="magnify"><defs/><g><!--cluster Flask App--><g class="cluster" data-qualified-name="Flask App" data-source-line="3" id="ent0002"><path d="M8.5,6 L86.7051,6 A3.75,3.75 0 0 1 89.2051,8.5 L96.2051,28.2969 L751.5,28.2969 A2.5,2.5 0 0 1 754,30.7969 L754,368.39 A2.5,2.5 0 0 1 751.5,370.89 L8.5,370.89 A2.5,2.5 0 0 1 6,368.39 L6,8.5 A2.5,2.5 0 0 1 8.5,6" fill="none" style="stroke:#000000;stroke-width:1.5;"/><line style="stroke:#000000;stroke-width:1.5;" x1="6" x2="96.2051" y1="28.2969" y2="28.2969"/><text fill="#000000" font-family="sans-serif" font-size="14" font-weight="bold" lengthAdjust="spacing" textLength="77.2051" x="10" y="20.9951">Flask App</text></g><!--cluster Scraping--><g class="cluster" data-qualified-name="Scraping" data-source-line="12" id="ent0009"><path d="M899.5,434.89 L970.042,434.89 A3.75,3.75 0 0 1 972.542,437.39 L979.542,457.1869 L1201.5,457.1869 A2.5,2.5 0 0 1 1204,459.6869 L1204,519.69 A2.5,2.5 0 0 1 1201.5,522.19 L899.5,522.19 A2.5,2.5 0 0 1 897,519.69 L897,437.39 A2.5,2.5 0 0 1 899.5,434.89" fill="none" style="stroke:#000000;stroke-width:1.5;"/><line style="stroke:#000000;stroke-width:1.5;" x1="897" x2="979.542" y1="457.1869" y2="457.1869"/><text fill="#000000" font-family="sans-serif" font-size="14" font-weight="bold" lengthAdjust="spacing" textLength="69.542" x="901" y="449.8851">Scraping</text></g><!--cluster Scorer--><g class="cluster" data-qualified-name="Scorer" data-source-line="17" id="ent0012"><path d="M780.5,283.6 L832.8037,283.6 A3.75,3.75 0 0 1 835.3037,286.1 L842.3037,305.8969 L899.5,305.8969 A2.5,2.5 0 0 1 902,308.3969 L902,368.39 A2.5,2.5 0 0 1 899.5,370.89 L780.5,370.89 A2.5,2.5 0 0 1 778,368.39 L778,286.1 A2.5,2.5 0 0 1 780.5,283.6" fill="none" style="stroke:#000000;stroke-width:1.5;"/><line style="stroke:#000000;stroke-width:1.5;" x1="778" x2="842.3037" y1="305.8969" y2="305.8969"/><text fill="#000000" font-family="sans-serif" font-size="14" font-weight="bold" lengthAdjust="spacing" textLength="51.3037" x="782" y="298.5951">Scorer</text></g><!--cluster Database--><g class="cluster" data-qualified-name="Database" data-source-line="21" id="ent0014"><path d="M325.5,434.89 L401.0049,434.89 A3.75,3.75 0 0 1 403.5049,437.39 L410.5049,457.1869 L741.5,457.1869 A2.5,2.5 0 0 1 744,459.6869 L744,519.69 A2.5,2.5 0 0 1 741.5,522.19 L325.5,522.19 A2.5,2.5 0 0 1 323,519.69 L323,437.39 A2.5,2.5 0 0 1 325.5,434.89" fill="none" style="stroke:#000000;stroke-width:1.5;"/><line style="stroke:#000000;stroke-width:1.5;" x1="323" x2="410.5049" y1="457.1869" y2="457.1869"/><text fill="#000000" font-family="sans-serif" font-size="14" font-weight="bold" lengthAdjust="spacing" textLength="74.5049" x="327" y="449.8851">Database</text></g><!--entity App--><g class="entity" data-qualified-name="Flask App.App" data-source-line="4" id="ent0003"><rect fill="#F1F1F1" height="36.2969" rx="2.5" ry="2.5" style="stroke:#181818;stroke-width:0.5;" width="67.9746" x="452.01" y="41"/><text fill="#000000" font-family="sans-serif" font-size="14" lengthAdjust="spacing" textLength="47.9746" x="462.01" y="63.9951">app.py</text></g><!--entity Auth--><g class="entity" data-qualified-name="Flask App.Auth" data-source-line="5" id="ent0004"><rect fill="#F1F1F1" height="36.2969" rx="2.5" ry="2.5" style="stroke:#181818;stroke-width:0.5;" width="73.4365" x="389.28" y="169.3"/><text fill="#000000" font-family="sans-serif" font-size="14" lengthAdjust="spacing" textLength="53.4365" x="399.28" y="192.2951">auth.py</text></g><!--entity Cars--><g class="entity" data-qualified-name="Flask App.Cars" data-source-line="6" id="ent0005"><rect fill="#F1F1F1" height="36.2969" rx="2.5" ry="2.5" style="stroke:#181818;stroke-width:0.5;" width="70.9482" x="235.53" y="169.3"/><text fill="#000000" font-family="sans-serif" font-size="14" lengthAdjust="spacing" textLength="50.9482" x="245.53" y="192.2951">cars.py</text></g><!--entity Tasks--><g class="entity" data-qualified-name="Flask App.Tasks" data-source-line="7" id="ent0006"><rect fill="#F1F1F1" height="36.2969" rx="2.5" ry="2.5" style="stroke:#181818;stroke-width:0.5;" width="78.3857" x="659.81" y="169.3"/><text fill="#000000" font-family="sans-serif" font-size="14" lengthAdjust="spacing" textLength="58.3857" x="669.81" y="192.2951">tasks.py</text></g><!--entity DB--><g class="entity" data-qualified-name="Flask App.DB" data-source-line="8" id="ent0007"><rect fill="#F1F1F1" height="36.2969" rx="2.5" ry="2.5" style="stroke:#181818;stroke-width:0.5;" width="59.3955" x="587.3" y="318.6"/><text fill="#000000" font-family="sans-serif" font-size="14" lengthAdjust="spacing" textLength="39.3955" x="597.3" y="341.5951">db.py</text></g><!--entity Templates--><g class="entity" data-qualified-name="Flask App.Templates" data-source-line="9" id="ent0008"><rect fill="#F1F1F1" height="36.2969" rx="2.5" ry="2.5" style="stroke:#181818;stroke-width:0.5;" width="102.209" x="83.9" y="318.6"/><text fill="#000000" font-family="sans-serif" font-size="14" lengthAdjust="spacing" textLength="82.209" x="93.9" y="341.5951">templates/*</text></g><!--entity Koenig--><g class="entity" data-qualified-name="Scraping.Koenig" data-source-line="13" id="ent0010"><rect fill="#F1F1F1" height="36.2969" rx="2.5" ry="2.5" style="stroke:#181818;stroke-width:0.5;" width="153.1504" x="1034.42" y="469.89"/><text fill="#000000" font-family="sans-serif" font-size="14" lengthAdjust="spacing" textLength="133.1504" x="1044.42" y="492.8851">scrapers/koenig.py</text></g><!--entity Upsert--><g class="entity" data-qualified-name="Scraping.Upsert" data-source-line="14" id="ent0011"><rect fill="#F1F1F1" height="36.2969" rx="2.5" ry="2.5" style="stroke:#181818;stroke-width:0.5;" width="86.5342" x="912.73" y="469.89"/><text fill="#000000" font-family="sans-serif" font-size="14" lengthAdjust="spacing" textLength="66.5342" x="922.73" y="492.8851">upsert.py</text></g><!--entity Scoring--><g class="entity" data-qualified-name="Scorer.Scoring" data-source-line="18" id="ent0013"><rect fill="#F1F1F1" height="36.2969" rx="2.5" ry="2.5" style="stroke:#181818;stroke-width:0.5;" width="92.584" x="793.71" y="318.6"/><text fill="#000000" font-family="sans-serif" font-size="14" lengthAdjust="spacing" textLength="72.584" x="803.71" y="341.5951">scoring.py</text></g><!--entity Schema--><g class="entity" data-qualified-name="Database.Schema" data-source-line="22" id="ent0015"><rect fill="#F1F1F1" height="36.2969" rx="2.5" ry="2.5" style="stroke:#181818;stroke-width:0.5;" width="163.8076" x="339.1" y="469.89"/><text fill="#000000" font-family="sans-serif" font-size="14" lengthAdjust="spacing" textLength="143.8076" x="349.1" y="492.8851">sql/create_tables.sql</text></g><!--entity SQLite--><g class="entity" data-qualified-name="Database.SQLite" data-source-line="23" id="ent0016"><rect fill="#F1F1F1" height="36.2969" rx="2.5" ry="2.5" style="stroke:#181818;stroke-width:0.5;" width="190.6592" x="537.67" y="469.89"/><text fill="#000000" font-family="sans-serif" font-size="14" lengthAdjust="spacing" textLength="170.6592" x="547.67" y="492.8851">instance/carwatch.sqlite</text></g><!--entity Selenium/ChromeDriver--><g class="entity" data-qualified-name="Selenium.ChromeDriver" data-source-line="46" id="ent0029"><ellipse cx="1111" cy="614.19" fill="#F1F1F1" rx="8" ry="8" style="stroke:#181818;stroke-width:0.5;"/><text fill="#000000" font-family="sans-serif" font-size="14" lengthAdjust="spacing" textLength="168.2939" x="1026.853" y="644.1851">Selenium/ChromeDriver</text></g><!--link App to Auth--><g class="link" data-entity-1="ent0003" data-entity-2="ent0004" data-link-type="dependency" data-source-line="27" id="lnk17"><path d="M451.81,77.28 C440.51,84.82 429.24,94.84 423,107.3 C413.27,126.73 415.2932,146.4873 419.3332,163.2373" fill="none" id="App-to-Auth" style="stroke:#181818;stroke-width:1;"/><polygon fill="#181818" points="420.74,169.07,422.5183,159.383,419.5676,164.2094,414.7413,161.2588,420.74,169.07" style="stroke:#181818;stroke-width:1;"/><text fill="#000000" font-family="sans-serif" font-size="13" lengthAdjust="spacing" textLength="113.1978" x="424.3555" y="120.3669">register blueprint</text><text fill="#000000" font-family="sans-serif" font-size="13" lengthAdjust="spacing" textLength="113.9087" x="424" y="135.4997">+ CLI create-user</text></g><!--link App to Cars--><g class="link" data-entity-1="ent0003" data-entity-2="ent0005" data-link-type="dependency" data-source-line="28" id="lnk18"><path d="M451.58,64.44 C402.64,71.21 316.36,85.86 294,107.3 C277.16,123.44 272.8398,145.1333 271.6398,163.1033" fill="none" id="App-to-Cars" style="stroke:#181818;stroke-width:1;"/><polygon fill="#181818" points="271.24,169.09,275.8308,160.3765,271.5731,164.1011,267.8486,159.8435,271.24,169.09" style="stroke:#181818;stroke-width:1;"/><text fill="#000000" font-family="sans-serif" font-size="13" lengthAdjust="spacing" textLength="113.1978" x="295" y="127.8669">register blueprint</text></g><!--link App to Tasks--><g class="link" data-entity-1="ent0003" data-entity-2="ent0006" data-link-type="dependency" data-source-line="29" id="lnk19"><path d="M515.62,77.71 C556.2,101.77 623.499,141.68 664.129,165.77" fill="none" id="App-to-Tasks" style="stroke:#181818;stroke-width:1;"/><polygon fill="#181818" points="669.29,168.83,663.5885,160.7993,664.9891,166.28,659.5084,167.6806,669.29,168.83" style="stroke:#181818;stroke-width:1;"/><text fill="#000000" font-family="sans-serif" font-size="13" lengthAdjust="spacing" textLength="74.7056" x="619" y="127.8669">register CLI</text></g><!--link App to DB--><g class="link" data-entity-1="ent0003" data-entity-2="ent0007" data-link-type="dependency" data-source-line="30" id="lnk20"><path d="M513.66,77.66 C524,85.53 534.94,95.67 542,107.3 C565.23,145.57 539.27,168.28 564,205.6 C576.67,224.72 594.4,215.8 606,235.6 C621.03,261.25 621.4455,291.0205 619.6955,312.1405" fill="none" id="App-to-DB" style="stroke:#181818;stroke-width:1;"/><polygon fill="#181818" points="619.2,318.12,623.9295,309.481,619.6129,313.1371,615.9569,308.8204,619.2,318.12" style="stroke:#181818;stroke-width:1;"/><text fill="#000000" font-family="sans-serif" font-size="13" lengthAdjust="spacing" textLength="61.6738" x="572.3918" y="184.5169">init_app()</text><text fill="#000000" font-family="sans-serif" font-size="13" lengthAdjust="spacing" textLength="76.4575" x="565" y="199.6497">DB lifecycle</text></g><!--link Auth to DB--><g class="link" data-entity-1="ent0004" data-entity-2="ent0007" data-link-type="dependency" data-source-line="33" id="lnk21"><path d="M451.02,206.06 C463.01,214.71 477.45,225.43 490,235.6 C506.64,249.07 509.42,254.06 526,267.6 C548.02,285.57 569.2019,301.3688 587.7719,314.8288" fill="none" id="Auth-to-DB" style="stroke:#181818;stroke-width:1;"/><polygon fill="#181818" points="592.63,318.35,587.6904,309.8294,588.5816,315.4156,582.9954,316.3068,592.63,318.35" style="stroke:#181818;stroke-width:1;"/><text fill="#000000" font-family="sans-serif" font-size="13" lengthAdjust="spacing" textLength="70.9287" x="528.8345" y="248.6669">users login</text><text fill="#000000" font-family="sans-serif" font-size="13" lengthAdjust="spacing" textLength="74.5977" x="527" y="263.7997">create-user</text></g><!--link Auth to Templates--><g class="link" data-entity-1="ent0004" data-entity-2="ent0008" data-link-type="dependency" data-source-line="34" id="lnk22"><path d="M388.86,195.14 C325.12,206.74 200.95,229.89 193,235.6 C164.44,256.11 149.7286,289.6817 142.0786,312.4817" fill="none" id="Auth-to-Templates" style="stroke:#181818;stroke-width:1;"/><polygon fill="#181818" points="140.17,318.17,146.8251,310.9099,141.7605,313.4297,139.2407,308.3651,140.17,318.17" style="stroke:#181818;stroke-width:1;"/><text fill="#000000" font-family="sans-serif" font-size="13" lengthAdjust="spacing" textLength="112.9248" x="194" y="256.1669">Login/Profil HTML</text></g><!--link Cars to DB--><g class="link" data-entity-1="ent0005" data-entity-2="ent0007" data-link-type="dependency" data-source-line="36" id="lnk23"><path d="M285.97,205.95 C304.94,227.97 336.02,263.43 343,267.6 C422.55,315.09 528.0001,329.1093 580.8901,333.4493" fill="none" id="Cars-to-DB" style="stroke:#181818;stroke-width:1;"/><polygon fill="#181818" points="586.87,333.94,578.2273,329.2174,581.8867,333.5311,577.573,337.1906,586.87,333.94" style="stroke:#181818;stroke-width:1;"/><text fill="#000000" font-family="sans-serif" font-size="13" lengthAdjust="spacing" textLength="137.541" x="344" y="248.6669">listings + saved_cars</text><text fill="#000000" font-family="sans-serif" font-size="13" lengthAdjust="spacing" textLength="66.5615" x="379.4897" y="263.7997">filters/sort</text></g><!--link Cars to Templates--><g class="link" data-entity-1="ent0005" data-entity-2="ent0008" data-link-type="dependency" data-source-line="37" id="lnk24"><path d="M235.35,190.91 C179.74,195.57 76.38,207.83 54,235.6 C30.63,264.58 66.8532,295.0322 98.5732,315.0122" fill="none" id="Cars-to-Templates" style="stroke:#181818;stroke-width:1;"/><polygon fill="#181818" points="103.65,318.21,98.1667,310.0287,99.4193,315.5452,93.9029,316.7978,103.65,318.21" style="stroke:#181818;stroke-width:1;"/><text fill="#000000" font-family="sans-serif" font-size="13" lengthAdjust="spacing" textLength="97.5825" x="55" y="256.1669">Autoliste HTML</text></g><!--link Tasks to DB--><g class="link" data-entity-1="ent0006" data-entity-2="ent0007" data-link-type="dependency" data-source-line="40" id="lnk25"><path d="M685.79,205.93 C679.47,214.63 671.99,225.44 666,235.6 C649.48,263.61 635.9711,292.4946 626.9611,312.8246" fill="none" id="Tasks-to-DB" style="stroke:#181818;stroke-width:1;"/><polygon fill="#181818" points="624.53,318.31,631.8336,311.7026,626.5559,313.7388,624.5197,308.4611,624.53,318.31" style="stroke:#181818;stroke-width:1;"/><text fill="#000000" font-family="sans-serif" font-size="13" lengthAdjust="spacing" textLength="84.335" x="667" y="256.1669">get_db_con()</text></g><!--link Tasks to Upsert--><g class="link" data-entity-1="ent0006" data-entity-2="ent0011" data-link-type="dependency" data-source-line="41" id="lnk26"><path d="M738.52,191.82 C794.1,197.4 891.23,210.53 915,235.6 C977.69,301.72 966.9491,418.3093 959.9991,463.6493" fill="none" id="Tasks-to-Upsert" style="stroke:#181818;stroke-width:1;"/><polygon fill="#181818" points="959.09,469.58,964.4075,461.29,959.8476,464.6377,956.4998,460.0778,959.09,469.58" style="stroke:#181818;stroke-width:1;"/><text fill="#000000" font-family="sans-serif" font-size="13" lengthAdjust="spacing" textLength="97.5444" x="966" y="341.3069">upsert_listing()</text></g><!--link Tasks to Scoring--><g class="link" data-entity-1="ent0006" data-entity-2="ent0013" data-link-type="dependency" data-source-line="42" id="lnk27"><path d="M722.01,205.91 C732.74,214.43 745.43,225.1 756,235.6 C783.21,262.62 807.4522,292.8462 823.2722,313.5062" fill="none" id="Tasks-to-Scoring" style="stroke:#181818;stroke-width:1;"/><polygon fill="#181818" points="826.92,318.27,824.6242,308.6925,823.8802,314.3002,818.2725,313.5562,826.92,318.27" style="stroke:#181818;stroke-width:1;"/><text fill="#000000" font-family="sans-serif" font-size="13" lengthAdjust="spacing" textLength="119.52" x="787" y="256.1669">score_all_listings()</text></g><!--link Tasks to Koenig--><g class="link" data-entity-1="ent0006" data-entity-2="ent0010" data-link-type="dependency" data-source-line="43" id="lnk28"><path d="M744.4413,192.5163 C831.2213,201.0363 1028.36,225.41 1072,275.6 C1121.11,332.07 1117.8213,423.8202 1113.8213,463.5302" fill="none" id="Tasks-Koenig" style="stroke:#181818;stroke-width:1;"/><polygon fill="#181818" points="738.47,191.93,747.0361,196.7902,743.4461,192.4185,747.8178,188.8285,738.47,191.93" style="stroke:#181818;stroke-width:1;"/><polygon fill="#181818" points="1113.22,469.5,1118.1019,460.9462,1113.7211,464.5252,1110.1421,460.1444,1113.22,469.5" style="stroke:#181818;stroke-width:1;"/><text fill="#000000" font-family="sans-serif" font-size="13" lengthAdjust="spacing" textLength="134.748" x="1114" y="341.3069">iter_koenig_listings()</text></g><!--link Koenig to Selenium/ChromeDriver--><g class="link" data-entity-1="ent0010" data-entity-2="ent0029" data-link-type="dependency" data-source-line="46" id="lnk30"><path d="M1111,506.57 C1111,533.97 1111,579.86 1111,599.44" fill="none" id="Koenig-to-Selenium/ChromeDriver" style="stroke:#181818;stroke-width:1;"/><polygon fill="#181818" points="1111,605.44,1115,596.44,1111,600.44,1107,596.44,1111,605.44" style="stroke:#181818;stroke-width:1;"/><text fill="#000000" font-family="sans-serif" font-size="13" lengthAdjust="spacing" textLength="131.2188" x="1112" y="551.2569">browser automation</text></g><!--link Upsert to DB--><g class="link" data-entity-1="ent0011" data-entity-2="ent0007" data-link-type="dependency" data-source-line="47" id="lnk31"><path d="M912.5,471.88 C878.56,459.39 830.69,440.3 791,418.89 C768.76,406.89 766.37,398.64 744,386.89 C712.18,370.19 679.0714,357.8893 652.7914,349.1193" fill="none" id="Upsert-to-DB" style="stroke:#181818;stroke-width:1;"/><polygon fill="#181818" points="647.1,347.22,654.371,353.8633,651.8429,348.8028,656.9034,346.2747,647.1,347.22" style="stroke:#181818;stroke-width:1;"/><text fill="#000000" font-family="sans-serif" font-size="13" lengthAdjust="spacing" textLength="137.3506" x="792" y="399.9569">insert/update listings</text><text fill="#000000" font-family="sans-serif" font-size="13" lengthAdjust="spacing" textLength="96.2241" x="812.5632" y="415.0897">+ price history</text></g><!--link Scoring to DB--><g class="link" data-entity-1="ent0013" data-entity-2="ent0007" data-link-type="dependency" data-source-line="50" id="lnk32"><path d="M793.35,336.74 C749.33,336.74 690.64,336.74 653.07,336.74" fill="none" id="Scoring-to-DB" style="stroke:#181818;stroke-width:1;"/><polygon fill="#181818" points="647.07,336.74,656.07,340.74,652.07,336.74,656.07,332.74,647.07,336.74" style="stroke:#181818;stroke-width:1;"/><text fill="#000000" font-family="sans-serif" font-size="13" lengthAdjust="spacing" textLength="77.8921" x="681.7" y="329.8069">insert Score</text></g><!--link DB to Schema--><g class="link" data-entity-1="ent0007" data-entity-2="ent0015" data-link-type="dependency" data-source-line="53" id="lnk33"><path d="M586.98,343.82 C559.26,350.62 518.1,363.82 489,386.89 C460.51,409.48 442.0699,441.8725 431.4299,464.0025" fill="none" id="DB-to-Schema" style="stroke:#181818;stroke-width:1;"/><polygon fill="#181818" points="428.83,469.41,436.3348,463.0321,430.9966,464.9038,429.1248,459.5656,428.83,469.41" style="stroke:#181818;stroke-width:1;"/><text fill="#000000" font-family="sans-serif" font-size="13" lengthAdjust="spacing" textLength="119.5645" x="490" y="407.4569">create/drop tables</text></g><!--link DB to SQLite--><g class="link" data-entity-1="ent0007" data-entity-2="ent0016" data-link-type="dependency" data-source-line="54" id="lnk34"><path d="M616.88,355.21 C616.95,371.69 617.53,397.04 620,418.89 C621.96,436.25 624.5734,449.9518 627.6034,463.6418" fill="none" id="DB-to-SQLite" style="stroke:#181818;stroke-width:1;"/><polygon fill="#181818" points="628.9,469.5,630.8606,459.8483,627.8195,464.6181,623.0496,461.5771,628.9,469.5" style="stroke:#181818;stroke-width:1;"/><text fill="#000000" font-family="sans-serif" font-size="13" lengthAdjust="spacing" textLength="118.1934" x="621" y="407.4569">SQLite connection</text></g><?plantuml-src RLJ1QXin4BthAuGlJXgSlOSIQ6nAIrrew_HKXqMMnsjXhQH8sXXJ-k-TaLPYNNgovkdDpDFCMuUJCavuqNDfUsSDcBY95mtSWup2T1eOSqAUH0Tyzb6BSE8Vd9lntuppNyAvUtTvuI8Gc90X7Yk4PyAayA5WIpmJ5h5G1Pyf87I_Az3gAR6WTrf42CsxJ2mn-pDHjP5UE6MwKLIW47neJXQCwah5BoaYmk02-5Zmdodwfw3ru6ivwx5ueMzoUCLVYIXs8a39UDMDz80wMyGrX7j4nkGZz88uoWISheG6XtCMKHw9eo9aslSr7gd5dERApogrfEDYyPZcoXzmGPqA4JpVwG4SCkBMtF7b-ZFFpHS3FgmcqU3_crGPQGjJ2fQgbwidl556nHPtVdExDGXeTG1vaUIGEVy1hmE4o0_QdbbIMDD8H-3QTifipPMsGgjxHVQQUCqtRmzAyq_FNzUC9Usrd4PrE8x0xtWGRx1loLzRW_H8MmyMjrapffMndQLa6ClEqx2I4rb-VEtHGMptkrPQStDRx_0ocuNUb0xjg6L2UYmEGH9P1rgXTU65IdoVocLFqcHHUflzEkMYn69kV6tkoSOaofzjG6CmzCtow6qFAw_UoBWFVEVj6TaSlqVRYwYiOQFsoJOfRWQtn_dKgPA7q1SI-14HwoyeedY-lEowGdfmyW22P166ltaGv7RavPqtUsyTprz4fIId8sKyuC0D_k-WtBy0?></g></svg>